<svg id="图层_1" data-name="图层 1" xmlns="http://www.w3.org/2000/svg" viewBox="0 0 1926.25 1925.78"><defs><style>.cls-1{fill:#003767;fill-rule:evenodd;}</style></defs><path class="cls-1" d="M-1280.54-630.79c530.39-3.87,961.25,419.91,970.11,946,9.1,540.66-425.33,978.57-960.3,979.81-531.57,1.23-952.13-424-965.48-937C-2250.29-183.41-1816.34-627.69-1280.54-630.79Zm7.51,41.16c-516.85-.08-931.95,424.6-922,939.71,9.58,497,412.76,892.08,899.55,903.53,516.6,12.16,947.73-405.33,944-928.32C-355.15-181.25-767.09-589.38-1273-589.63Z" transform="translate(2236.54 630.81)"/><path class="cls-1" d="M-1126.5-144.78c-18.52,39.63-38.86,77.08-59.37,114,34.73,0,68.33-.11,101.92,0,48.32.2,96.64.31,145,1.12,9.64.17,19.26,3.2,28.83,5.22,1.18.25,2.8,2.39,2.82,3.67.23,19.81,0,39.63.32,59.44,1,68.3,2.43,136.6,3.29,204.9.41,32.64.66,65.32-.3,97.94-1.66,56.78-18.08,109.79-44.36,159.76C-979,559.47-1021,607.51-1076.53,643.24c-24.28,15.61-50.92,26.08-77.91,35.62-44.06,15.58-83,39.86-119,69-13.18,10.67-13,10.71-24.92-1-20.57-20.17-45-34.86-70.47-47.69-18.85-9.5-38.05-18.47-57.64-26.28-38.53-15.36-71.66-38.72-101.9-66.5-52.18-47.95-90.58-104.83-110.94-173.21a325,325,0,0,1-13.43-88.13c-.85-56.62-.58-113.27-.26-169.9.37-64.14,1.31-128.28,2-192.42.1-9.14,1-10.39,10.36-10.61,12.81-.3,25.63.07,38.46.06,16.64,0,33.28,0,49.93-.2,13.32-.15,26.65-.55,40-.89,22.63-.58,45.27-1.5,67.9-1.73,16.82-.17,33.65.61,50.47.75a56.68,56.68,0,0,0,11.88-1.32c4.81-1,5.8-3,3.94-7.49-3-7.21-6-14.45-9.44-21.46-11.89-24.19-24-48.28-36-72.4-1-2.09-2.17-4.13-3.17-6.23-2.5-5.19-1.74-6.35,4.17-6.34l289.42.32ZM-1463.84,434v.26c-29.65,0-59.3-.08-89,0q-18.48.08-37,.87c-7.65.31-10.78,3.5-10,11.07.61,5.85,1.83,12,4.37,17.21,5.67,11.66,12,23,18.62,34.17,39.33,66.38,92,117.76,164.88,146.4,37.64,14.8,73.41,33,106.05,57.11a111.38,111.38,0,0,0,15.89,9.37,7.32,7.32,0,0,0,6.11-.39c16.7-10.34,33.08-21.2,49.89-31.35,9.94-6,20.16-11.78,30.85-16.23,14.06-5.87,28.79-10.11,43.08-15.47,13.84-5.2,28.24-9.56,41.08-16.66,76.68-42.39,129.53-105.67,161.28-187,2.46-6.3,1.58-8.23-5.26-9-11.88-1.4-23.85-2.86-35.78-3-75.13-.6-150.27-.78-225.4-1.29-4.55,0-5.65,1.69-5.86,5.67-.57,10.47-1,21-2.2,31.39-2.87,24.79-5.88,49.57-9.41,74.27-1.51,10.55-2.67,11.49-13.29,11.51-23.3.06-46.6-.58-69.9-.85-3.41,0-4.06-1.83-4.18-4.76-.63-16.14-1.41-32.28-2.11-48.42-.85-19.47-1.57-38.95-2.55-58.41-.42-8.43-.65-8.51-8.81-8.4Q-1403.13,433-1463.84,434Zm476.89-208.84h1.12c0-14.15-.07-28.31,0-42.47q.22-36.72.65-73.44c.2-15.79-6.66-27.2-20.93-33.88a195.61,195.61,0,0,0-22.08-9.16c-28.52-9.3-58-13-87.83-15-7.3-.5-14.82-1.66-21.91-.49-14.25,2.34-28.27,6.07-42.39,9.22-13.13,2.93-19.8,11.32-20.82,24.54-2.64,34.19-5.21,68.38-8,102.56-2.39,29.54-5.08,59-7.51,88.59-1.31,15.92-2.58,31.86-3.43,47.81-.4,7.51,3,10.61,10.61,10.65,8.83,0,17.69.31,26.47-.41a338.25,338.25,0,0,1,63.32.33c22.35,2.38,44.81,3.65,67.16,6,18.52,1.94,37,4.83,55.44,7.11,9.78,1.21,10,1,10-9.05C-986.89,300.42-986.95,262.78-986.95,225.14Zm-307.69,293.25c7.38-.45,14-.69,20.61-1.41,1.08-.12,2.64-2.33,2.77-3.68,2.18-22.88,4.16-45.78,6.21-68.67,2.84-31.69,5.64-63.38,8.59-95.05,2.73-29.36,5.7-58.69,8.46-88,2.85-30.18,5.52-60.38,8.36-90.56q4.71-50,9.61-100c2.84-28.67,5.76-57.33,9-86,1.45-12.95,1.77-13.25-11.53-12.69-9.63.4-19.2,2.54-28.81,2.66-21.48.28-43-.23-64.47-.41-4.27,0-8.55,0-13.36,0C-1324.36,156.14-1309.52,337-1294.64,518.39ZM-1574,210.45c0,43.48-.11,73.3.07,103.11a214.54,214.54,0,0,0,1.59,23.89c.73,6.14,4.15,9.23,10.32,9.59,16.62,1,32.82-2,48.84-6,1.68-.42,4-2,4.32-3.49a228.65,228.65,0,0,0,4.58-22.88c.57-4-1.66-6.71-6-7.89-2.35-.63-5.42-2.39-6.16-4.39-1.7-4.6-3.08-9.72-2.77-14.51.15-2.33,4.38-4.42,6.8-6.57,1.86-1.66,4.11-3,5.6-4.94s3.3-4.52,3.32-6.83c.1-12.8-.14-25.62-.61-38.42-.22-5.81-2.81-10.42-8.51-13-7.28-3.33-6.17-10.27-6.58-16.48-.35-5.28,4.24-6.09,7.46-7.4,8.47-3.44,14.06-9.31,16.88-17.85,6.65-20.18,13.7-40.26,19.65-60.65,4.48-15.37,6.91-31.29,5-47.38-.53-4.57-3-9-5-13.25-.43-.92-2.86-1.63-4.1-1.34-18.27,4.38-36.69,8.29-54.66,13.71-9.54,2.87-18.41,8.17-27.33,12.86-4.52,2.39-6.49,6.93-6.84,12.09-.22,3.16-.82,6.29-1,9.44C-1570.89,142.58-1572.74,183.33-1574,210.45Zm175.21,8.23c-2.64-.24-4.31-.25-5.93-.55-4.65-.86-6.71.75-6.7,5.7,0,10.32-.59,20.64-.43,31A157.09,157.09,0,0,0-1410,273.1c.5,3.75,2.75,6.12,6.45,7.51a8,8,0,0,1,4.41,4.1c3.41,10,.8,18.49-7.14,25.07-5.64,4.67-4.89,10.78-3.81,17,1,5.47,4.84,7.43,9.63,7.72,17.75,1.08,35.52,1.93,53.28,2.85,4.56.24,5.52-2,4.93-6.28-1.22-8.71-2.23-17.47-2.8-26.25-2-31.06-3.55-62.16-5.8-93.21-2.1-29.05-5-58-7.32-87.07-1.2-14.93-1.91-29.9-2.83-44.85-.49-7.94-4.54-13.38-11.7-16.57a59.59,59.59,0,0,0-7.92-3c-18.68-5.26-37.83-7.43-57.15-8.39-5.14-.25-8,1.81-9.09,7a99.88,99.88,0,0,0,.44,43.6c6.85,28.93,19.57,55.79,30.71,83.17,1.17,2.87,4.92,5.34,8,6.63,6.39,2.66,9.5,7.05,9.48,13.75C-1398.17,210-1398.54,214.11-1398.77,218.68ZM-1175-118.23c-34.43,7.25-68.26,5-101.92,5.3s-67.46-.49-102.13-.82c6.79,12.37,13.61,25.06,20.68,37.6,6.85,12.13,17.23,16.94,31.25,16,18.26-1.26,36.58-1.81,54.88-1.87,18-.05,35.93.92,53.9,1.4,7.91.21,13.68-3.59,17.86-10,2-3.07,3.83-6.24,5.61-9.44q8.71-15.69,17.31-31.45A60.14,60.14,0,0,0-1175-118.23Zm-20.8,151.81c2.09-.43,3.36-.63,4.61-.95,19.49-5,38.89-9.47,59.29-10.29,41.07-1.63,80.7,3.72,118.65,19.83C-987.85,53-963,64.89-939,79.16a30.63,30.63,0,0,0,1.14-4.86c.86-11.79,2.05-23.57,2.26-35.37A218.76,218.76,0,0,0-937.18,11c-.79-7-3-8.73-10-9.56a93.93,93.93,0,0,0-12-.53c-30,.35-59.94,1.11-89.91,1.11-43.81,0-87.61-.59-131.42-.79a8.24,8.24,0,0,0-5.16,2.17C-1194.06,11.44-1195.18,22-1195.77,33.58Zm-170.12,2.73,1.82-1.18c-1.39-9.63-2.69-19.26-4.21-28.86-.48-3-2.41-3.79-5.52-3.21-5.39,1-10.87,2.09-16.31,2.07-19.81,0-39.62-.91-59.43-.81-41.64.21-83.28.75-124.92,1.35-13,.18-26,.91-38.94,1.52-7.09.33-7.42.61-7.75,7.42-1.09,22.62-2.06,45.25-3,67.88a37.51,37.51,0,0,0,.45,4.45c36.16-30.62,77.68-47.69,122.68-58C-1455.17,18.5-1410.53,25.63-1365.89,36.31Zm409.34,363.54,1.1-1.4c-3.36-3.52-6.21-7.84-10.19-10.37a86.63,86.63,0,0,0-18.82-8.95c-25.27-8.46-51.62-11.43-78-13.83a1011.59,1011.59,0,0,0-139.27-3.05c-7.61.35-15.21,1-23.06,1.48-.52,11-1,21.37-1.53,32.31,2.18,0,3.79,0,5.41,0,25.42-.7,50.78,1.34,76.27.43,32.59-1.16,65.31,1.58,97.91.63,23.72-.69,47.25.16,70.84,1.73C-969.44,399.26-963,399.51-956.55,399.85Zm-652,1.21c4.36.31,7.88.84,11.38.76,20-.47,39.94-1.32,59.91-1.62,39.29-.58,78.58-.89,117.88-1.32,19.94-.22,39.89-.56,59.83-.66,5,0,10,1,14.94.79,1.8-.06,5-2.1,5.06-3.29a129.53,129.53,0,0,0-1-22.2c-.35-2.24-3.94-4.87-6.55-5.66-4.23-1.29-8.86-1.53-13.33-1.64q-50.93-1.23-101.86-2.18a93,93,0,0,0-16.45.7c-28.22,4.55-56.3,10.2-84.63,13.85C-1581,380.86-1593.69,391.41-1608.57,401.06Zm-11-27,2.07.15c9.1-5.75,17.63-11.83,17.88-24.32.22-10.48,1.1-21,1.15-31.43.16-36.14,0-72.28.12-108.43.08-32.32.34-64.64.38-97,0-3.31-.9-6.63-1.44-10.39-14.41,7.41-23.87,17.09-24.62,33.1-.33,7-1,14-.92,20.94.35,22,1.2,44,1.51,65.94.62,44.15.92,88.3,1.58,132.45C-1621.81,361.46-1620.41,367.77-1619.62,374.08Zm660.09-271c0,13.6-.14,26.9,0,40.2q1.31,102.66,2.78,205.31c0,2.31-.45,5.12.65,6.84,5.22,8.19,10.89,16.09,16.41,24.09l1.28-.36a64.7,64.7,0,0,0,1.19-7.11c.45-7.82.93-15.64,1-23.46.43-41,1-81.93,1-122.89q.09-48.7-.85-97.4C-936.19,116.31-947.36,105-959.53,103.07Zm-498.28,15.76-1.63.11c-.66,5.39-1.16,10.8-2,16.15-2.58,16.08-9.77,30.3-18,44.11-1.45,2.45-2.54,5.11-4,8.1h47.36C-1443.25,164.65-1450.53,141.74-1457.81,118.83Zm28.11,191.43-51.73-2.65c.52,7.07.49,13.57,1.7,19.83a10.67,10.67,0,0,0,5.7,6.8,38.18,38.18,0,0,0,14,2.53,90.89,90.89,0,0,0,18.26-2.23c2.56-.55,6-2.47,6.82-4.62C-1432.64,323.82-1431.48,317.29-1429.7,310.26Zm-1.89-57.17c-.69-9.62-1.13-17.44-1.84-25.23s-3.33-9.55-10.86-7.1c-1.86.61-4.69,2.59-4.68,3.92.13,16.65.66,33.29,1.17,49.94.1,3.07,1.82,4.06,4.75,3,5.28-1.89,8.82-5.55,9.88-11C-1432.19,261.62-1432,256.45-1431.59,253.09Zm-53.58-33.61c-5.72,19.56,1.91,38.35,3,57.68,8.32-1.83,12.85-7.51,13-16.86s-.46-18.93-.88-28.39C-1470.68,218.32-1470.84,218.22-1485.17,219.48Z" transform="translate(2236.54 630.81)"/><path class="cls-1" d="M-1845.38,167.67c14.42,8.55,28.27,16.16,41.49,24.74,25.42,16.49,50.38,33.68,75.78,50.21,4.83,3.14,4.16,6.76,3.78,11.08-1.7,19.06-3.58,38.12-4.78,57.21a110.56,110.56,0,0,0,1.23,22.39c1.21,8.46,6,11.53,14.25,9.45,11-2.75,21.84-5.88,32.63-9.27,3.87-1.21,5.85-.22,6.45,3.4,1.64,10,3.4,20,4.5,30.05,2.73,25.19,5.7,50.36,14,74.44,38.25,111.24,109.13,194.27,214.66,247,23.34,11.68,48.36,18.69,73.69,24.6a78.94,78.94,0,0,1,8.16,2.29c8.58,3,11.11,8.26,7.56,16.78-2.81,6.75-6.34,13.19-9.44,19.83-5.42,11.64-2.9,19.1,9.38,22.87,10.09,3.09,20.77,5.67,31.23,5.86,29,.54,57.95,0,86.9-.74a107,107,0,0,0,25.11-3.91c6-1.62,9.31-7.23,11.27-13,1.56-4.66-.59-8.53-3.92-11.64-2.42-2.26-5.25-4.07-7.84-6.16-12.47-10.08-10.43-24.59,4.53-30.5,4.25-1.68,9.14-1.68,13.58-3,10.17-3,20.25-6.38,30.36-9.65,26.5-8.57,52.19-19,76.36-33,45.8-26.53,83.85-61.7,115.51-103.9,33.61-44.8,58.63-93.9,73.12-148.16a315,315,0,0,0,10.75-72c.23-7.77.37-8,8-6.88,11.52,1.68,23,3.82,34.53,5.3,10.05,1.29,14.58-2.45,14.24-12.77-.65-20.12-2.11-40.22-3.24-60.32-.2-3.5-.12-7-.66-10.47-1.49-9.56,2.56-16,10.11-21.61a873.8,873.8,0,0,1,98.91-63.05c10.32-5.66,12.4-4.85,14.66,6.76,5.53,28.4,12.26,56.72,15.29,85.42,2.59,24.54,1.46,49.58.58,74.35-.73,20.44-3.49,40.8-5.42,61.2a35.62,35.62,0,0,1-1.26,6.36c-1.63,5.7-5,8.55-11,8.11a69.71,69.71,0,0,1-15.1-3c-10.66-3.25-21.13-7.09-31.75-10.46-6-1.9-6.29-1.53-7.29,4.75-19.92,124.73-77.42,229.08-170.67,313.9A378.06,378.06,0,0,1-1016,779.15c-34.44,17.81-68.76,35.94-105.24,49.31-9.89,3.62-20.58,5.21-31,7.16-3.5.65-4.81,1.61-4.92,5.18-.49,15.65-1.22,31.3-1.86,46.94,0,.34,0,.67,0,1-.85,13.9-3.51,18.61-17.12,21.34-18.06,3.62-36.42,6.57-54.77,7.66-36.6,2.19-73.31,2.54-109.87-.9a484.9,484.9,0,0,1-48.85-7.21c-12.89-2.55-14.81-5.66-15.32-18.82-.58-14.65-.77-29.31-1.16-44-.07-2.49.09-5.08-.55-7.44-.37-1.37-2-3.26-3.27-3.39-16.13-1.7-30.89-7.81-45.68-13.86-47.8-19.55-93.47-43-134.4-74.81-67.16-52.25-119-116.91-156.4-193.29-18.56-37.94-32.76-77.51-43.7-118.24-2.1-7.82-2.73-16.06-3.63-24.16-.81-7.26-1.39-7.95-8.62-6.18-10.83,2.66-21.61,5.48-32.44,8.13a57.36,57.36,0,0,1-8.35,1.43c-9.77.9-14.07-2-15.8-11.66-1.41-7.85-2.08-15.84-2.86-23.79-5.78-59.25-2.16-118.15,7.07-176.79,1.5-9.49,4.34-18.78,6.67-28.14C-1847.65,172.77-1846.71,171-1845.38,167.67ZM-1386,735.57l.06-1.44c-4.88-1-9.71-2.44-14.64-3-12.59-1.36-25.13-2.65-37-7.74-83.29-35.81-149.89-91.39-198.92-167.79-26.77-41.7-46.23-86.51-55.91-135.24-2.45-12.36-3.37-25-4.76-37.6-.89-8-2-9.22-9.68-7.13-13.63,3.73-27.18,7.75-40.72,11.79a73.46,73.46,0,0,0-8.26,3.49c-6.37,2.8-9.55,7.8-9.08,14.65.5,7.28.66,14.77,2.55,21.73,11.85,43.63,27.69,85.8,48.59,125.91,59.35,113.86,146.26,197.38,268.07,242.15,10.92,4,22,7.58,33.09,11.13,4.93,1.59,6.14.06,6.11-4.88-.06-10.8-.7-21.76.87-32.37C-1403.59,755.83-1400.94,742-1386,735.57Zm203.32,0a9.23,9.23,0,0,0,1.56,1.38c14.17,6.53,19.89,18.56,21.08,33.19.83,10.28.89,20.63,1.33,30.94.08,1.92.3,3.83.53,6.7,13.15-4.74,25.52-9.1,37.81-13.67,72-26.72,136.45-65.26,189.64-121.44,19.25-20.32,39.34-40,54.45-63.72,33.79-53,59.45-109.57,74.08-170.88,3.05-12.76,5.47-25.67,8.12-38.53.83-4-.49-6.37-4.94-7.43-17.63-4.19-35.23-8.55-52.73-13.25-4.77-1.27-6.17.42-7.08,4.56-1.95,8.94-4.15,17.82-6.32,26.71-7.75,31.85-15.77,63.64-29.55,93.57-35.81,77.78-91.19,138.67-162.22,185.55-31.19,20.59-64.25,37.15-102.74,39.37C-1167.49,729.05-1175.56,730.22-1182.67,735.54ZM-1374.83,798c0,21.61-.53,41.92.2,62.17.45,12.62,4.28,16.14,16.66,18.82,26.66,5.77,53.72,7.47,80.93,7.47,23.3,0,46.61.76,69.5-5.37,7.69-2.07,12.69-5.63,13.39-13.78q2.54-29.85,4.81-59.72c.17-2.15-.54-4.36-.91-7.06a162.73,162.73,0,0,1-53.32,11.36c-26.78,1-53.62.89-80.43.91a74.33,74.33,0,0,1-31-6.64C-1360.9,803.53-1366.95,801.26-1374.83,798Zm638.65-576.41c-13.56,7.7-25.76,14.49-37.82,21.53-5.16,3-10.08,6.45-15,9.86a15.52,15.52,0,0,0-7,14.06c.19,6.66-.23,13.33-.06,20,.55,21.13,1.25,42.25,1.88,63.37.14,4.93,2.51,8,7.25,9.54,15.84,5,31.69,10,47.45,15.34,3.72,1.25,5.46.08,7-3.06,4.86-9.64,5.79-20.12,6.26-30.57,1.31-29.36-.76-58.6-4.23-87.73C-731.69,243.31-734.15,232.81-736.18,221.62ZM-1825.24,224a15.53,15.53,0,0,0-.59,2.32c-1.76,37.06-3.7,74.13-5.09,111.21-.31,8.07.88,16.29,2.24,24.29,1.44,8.44,4.52,10.88,12.85,9.13,16.74-3.53,33.28-8,49.9-12,3-.72,4.17-2.64,4.54-5.66,3.16-26,4.59-52.06,2.33-78.22-.61-7.11-3.31-13.1-9-17.65C-1785.45,243.62-1805.49,234.61-1825.24,224Z" transform="translate(2236.54 630.81)"/><path class="cls-1" d="M-1408.73-296.42c-2.71,6.91-6.09,13.64-8,20.78-3,11.6-10.21,16.31-21.73,19.4-93.56,25.11-176.82,69.75-248.86,134.66-100.49,90.54-164.77,202-191.43,334.78a573.65,573.65,0,0,0-9,165.62c13,143.4,69.56,267.22,170,370.51,87,89.42,192.11,146.36,314,172.33,56.72,12.09,114.12,15.51,172,11.24A612.58,612.58,0,0,0-724.37,586.74a593.69,593.69,0,0,0,53.5-182.67,583.61,583.61,0,0,0,2.44-130.16Q-686,91.17-801.57-51.69c-63.57-78.27-142.2-136.82-234.62-177-10.11-4.4-9.92-1.91-8.16-15,.74-5.44,1.62-10.87,2.28-16.32.55-4.44,2.55-5.8,6.76-3.85,18.57,8.57,37.63,16.21,55.68,25.75C-844-166.44-744.69-60.65-683.42,80.25c23.09,53.1,37.87,108.6,45.48,166a628.38,628.38,0,0,1,2.65,144.59c-10.32,104.65-43.6,201.48-102.06,288.92-91.4,136.73-217.1,226.47-375.8,269.62-52.63,14.32-106.36,20.35-161,20.89-124.14,1.21-239.43-29.85-344.74-95q-217.18-134.43-285.93-381.41a595.62,595.62,0,0,1-20.78-190.45c9.52-183.78,84.21-336.44,222.43-457.54,82-71.84,177.4-118.12,283.67-142.07,3.17-.71,6.4-1.11,9.6-1.65Z" transform="translate(2236.54 630.81)"/><path class="cls-1" d="M-1152.83-311.82c25.07,2.17,59.49-16.33,79.25-52.27,2.65,3.5,5.33,6.6,7.51,10,9,14,12.12,29.75,13.69,46,6.61,68-38.85,132.74-105.52,148.5-14.87,3.52-30.7,3.89-46.1,4-39.15.38-78.31-.3-117.47-.34-51.55-.05-82.42-41.42-87.13-76.44-6-44.88,21.64-74.66,49.7-83.87,12.57-4.13,25.86-6.11,38.85-8.92,34.25-7.4,63.61-23.19,86.52-50.15,1-1.14,2-2.26,3.51-4.08,9.78,19.31,11.94,38.74,7.57,59.53,41.46-5.56,68.34-31.2,91.59-62.7C-1130.07-356.35-1138.13-333.25-1152.83-311.82ZM-1262-287.69c10.26-15.47,20.68-29.89,21.78-49.44-4.67,2.9-8.5,5.19-12.24,7.62-13.13,8.52-26.27,17.1-41.5,21.52-14.69,4.25-29.68,7.57-44.18,12.38-38.91,12.89-44.07,48.11-29.34,75.85,8.69,16.37,23.79,24.4,41.26,27.82,27.56,5.41,55.39,3,83.16,1.82,10.95-.46,21.95-.41,32.91-.1,10.63.3,21.42,2.81,31.83,1.59,25.49-3,47.07-14.48,64.23-33.94,23.28-26.4,35-57.75,39.78-92.1.28-2-.2-4.06-.41-7.31-2.57,2.21-4.25,3.49-5.73,5-5.68,5.63-11.18,11.44-17,17-8.31,8-17.79,14-29.12,16.69a170.18,170.18,0,0,1-47.07,4.46,27.89,27.89,0,0,1-5-1.08c4.13-13.77,8.12-27,12.1-40.28l-1.34-.69c-14.23,9-25.54,22.62-42.6,27.11C-1227.06-289.45-1244-287.88-1262-287.69Z" transform="translate(2236.54 630.81)"/><path class="cls-1" d="M-620.94-52c-14.42,7.94-28.87,15.82-43.23,23.86-11.33,6.33-22.48,13-33.85,19.26-9,5-12.25,3.37-16.22-6.2a114.49,114.49,0,0,0-8.7-16.78c-6.51-10.38-6.14-12.66,5-18.23,28.85-14.47,58-28.34,86.56-43.37,29.73-15.65,58.95-32.3,88.31-48.66,14.23-7.93,15.58-7.42,22.79,7,7.36,14.72,15.13,29.24,23.09,43.65,7.74,14,15.21,28.06,17.6,44.23,4.45,30.12-14.54,57.13-44.55,62C-545,18.18-563.74,12.36-580-1.15c-3.55-2.95-7-6-11.06-9.38-1.25,2.57-2.31,4.59-3.22,6.68Q-616.1,46.24-637.91,96.33a27.4,27.4,0,0,1-1.91,4.06c-3.74,5.75-10.91,5.57-14.15-.44-5.75-10.67-11.49-21.36-16.84-32.23-.88-1.79-.39-4.88.54-6.86,9.39-19.85,19.32-39.44,28.44-59.41,7.19-15.72,13.47-31.85,20.13-47.81.62-1.5,1.05-3.09,1.56-4.63C-620.41-51.34-620.68-51.68-620.94-52Zm26.87-13.88c5.89,13.69,12.88,25.67,24.28,34.45,15.07,11.61,33.47,10.43,47.15-2.86,6.95-6.77,9.45-15,8-24.56-2.05-13.21-9.31-24.07-15.79-35.26-.52-.89-3.55-1.19-4.89-.6-8.66,3.85-17.22,7.91-25.71,12.11C-571.93-77.26-582.68-71.69-594.07-65.91Z" transform="translate(2236.54 630.81)"/><path class="cls-1" d="M-2016.26-.06c6.69,3.61,12,6.72,17.46,9.39q54.51,26.53,109.1,52.86c8.66,4.17,9.71,7.28,5,15.47a137.71,137.71,0,0,0-7.1,14.23c-3,7-6.52,8.69-13.24,5-7.27-4-14.19-8.69-21.35-12.94C-1977.95,53.35-2031,25.54-2084.9-.62c-2.39-1.16-4.81-2.31-7.09-3.67-3.11-1.87-7.08-3.61-6.23-8.08.93-4.91,2.65-9.8,8.29-11.48q20.32-6,40.68-12,74.52-21.52,149.07-43c2.34-.68,4.64-1.51,8-2.63-3.25-1.9-5.55-3.46-8-4.67q-53.76-26.39-107.54-52.69c-3.74-1.83-7.52-3.59-11.11-5.66-4.52-2.61-5.4-6.49-3-11.05,2.93-5.55,5.75-11.17,8.57-16.78,2.28-4.54,5.57-5.91,10.28-4a27.67,27.67,0,0,1,4.45,2.24c57.51,35.31,118.19,64.67,178.36,95,2.37,1.19,4.73,2.43,7.11,3.62,3.36,1.68,6.9,3.4,6,8s-2.42,9.56-8,11.06c-10.75,2.9-21.6,5.49-32.32,8.5q-81.42,22.82-162.79,45.81C-2011.72-1.61-2013.26-1-2016.26-.06Z" transform="translate(2236.54 630.81)"/><path class="cls-1" d="M-1330.8-415.86c-3.41-14.42-6.37-27.52-9.62-40.55-7.58-30.52-15.3-61-23-91.49-.29-1.13-.56-2.26-.79-3.4-1.79-8.78-.09-11,8.7-12.31a77.61,77.61,0,0,0,13-3.16c8-2.71,11.9-.6,13.38,7.8,4.87,27.53,9,55.23,14.8,82.55,8.53,39.85,18.33,79.43,27.58,119.12.3,1.3.49,2.63.84,3.9,1.21,4.36,2.1,8.76-2.8,11.45-4.71,2.59-9.33,3.49-14.44-.06q-78.75-54.76-157.68-109.26c-3.94-2.73-8-5.28-13.36-8.81,1.65,8.15,2.76,14.91,4.42,21.54q14.51,58.11,29.24,116.14c2.32,9.11-.28,12.64-9.54,13.66-5,.57-10,2.27-15,3.58-7.77,2.06-11,.09-12.16-7.77-9.7-68.63-24.51-136.23-41.24-203.43-.2-.81-.42-1.61-.6-2.43-1-4.25-2.26-8.59,2.32-11.76,4.22-2.93,11.61-3,15.92,0l163,110.36C-1335.87-418.94-1333.91-417.8-1330.8-415.86Z" transform="translate(2236.54 630.81)"/><path class="cls-1" d="M-1951.88,759c-11.55-3-23-6.23-34.66-8.85q-40.41-9.09-80.95-17.61c-4.39-.93-6.67-3.21-8.65-7.13-3.28-6.49-7.38-12.57-11.21-18.77-2.81-4.56-3.1-8.82.46-11.14a11.84,11.84,0,0,1,8.61-1.51c25.5,7,50.86,14.55,76.34,21.6,15.53,4.3,31.21,8,47.27,12.09,4.37-13.21,8.53-25.8,12.68-38.39q15.54-47.14,31.12-94.28a53.56,53.56,0,0,1,3.62-8.75c3-5.58,9.5-5.9,12.81-.57,6.31,10.18,12.52,20.41,18.4,30.83,1,1.82.85,4.91.12,7-9.36,27-18.92,54-28.42,81q-5.13,14.6-10.19,29.21c-.58,1.67-1,3.38-2,6.38,5.58-3.31,10-5.81,14.34-8.54,18.87-11.9,37.69-23.89,56.54-35.81,11.11-7,13.32-6.29,19.46,5.34a175.38,175.38,0,0,0,9.77,16.23c5.56,8.22,5.1,11.5-3.39,16.35-35.4,20.24-71,40.09-106.19,60.73-22.24,13.06-43.87,27.19-65.66,41-16.21,10.28-16.56,6-22.5-6.31-2.58-5.36-6.2-10.23-9.51-15.21-4.67-7-4.33-9.93,2.95-14.07,18.23-10.36,36.62-20.44,54.92-30.69,4.75-2.66,9.38-5.52,14.07-8.29C-1951.75,760.19-1951.81,759.57-1951.88,759Z" transform="translate(2236.54 630.81)"/><path class="cls-1" d="M-1388.19,1080.34c1.75,1.85,3,3.37,4.49,4.74,21.37,20.1,23.71,44.44,13.62,70.11-11.14,28.38-32.61,44-63.54,46.13-20.37,1.41-38.84-3.66-56-14.47-44.53-28.09-35.15-95.12,6.8-114.83,2.54-1.19,5.06-2.39,8.09-3.83-1.15-1.68-2-3.22-3.16-4.58-25.59-31-10.21-76.44,31.06-86.22,25.21-6,49.18-.85,70,14.86,27.62,20.87,25,64-4.57,83.77C-1383.46,1077.4-1385.58,1078.69-1388.19,1080.34Zm-20.33,46.2c-.12-2.33-.18-4.66-.35-7-1.11-14.94-10.23-26.31-23.85-29.79-13-3.31-26.19,2.39-34,15-8.67,14-10.84,29.33-7.69,45.17,2.63,13.23,11.06,22,24.46,24.68s23.79-2.67,31.41-13.69C-1411.44,1150.63-1408.53,1139-1408.52,1126.54Zm-40.66-89.93c0,1.33,0,2.66,0,4,.53,12.06,6.82,20.06,17.61,22.39,12.53,2.71,21.82-1.48,27.38-12.7a49.11,49.11,0,0,0,4.47-28.18c-1.19-10-6.86-16.25-16.44-19.09-9.95-3-18.41-1-25,7.42C-1447.14,1018.13-1449.18,1027.07-1449.18,1036.61Z" transform="translate(2236.54 630.81)"/><path class="cls-1" d="M-1569.88-313.78c.15,29.77-10.39,51.25-30.36,68-18.27,15.34-39,25.9-62.72,30.11-25.68,4.56-47.3-3.16-65.51-21.37-11.08-11.08-19-24.31-26.53-37.92-17.68-32.05-35.66-63.93-53.5-95.89-1.87-3.34-3.86-6.64-5.39-10.13-2.07-4.74-.91-7.94,3.61-10.49,8.23-4.66,16.53-9.21,24.83-13.75,4.43-2.43,7.88-1.62,10.6,2.83,2.16,3.54,3.86,7.36,5.8,11,18,34,35.74,68,54.08,101.81a90.37,90.37,0,0,0,25.45,29.82c11.44,8.49,24,11,37.78,7.19a88.33,88.33,0,0,0,29.11-13.92c19.26-14.08,26.12-31.58,19.86-54.63a154.07,154.07,0,0,0-13-33.33c-18.16-33.3-37.23-66.11-56-99.11-.82-1.45-1.72-2.85-2.46-4.34-2.51-5-1.39-8.55,3.45-11.21q8.93-4.92,17.83-9.88c5-2.78,8.71-1.89,11.5,3.57,6.82,13.33,13.26,26.85,20,40.22,14.2,28.24,28.62,56.37,42.69,84.68C-1572.51-337.93-1569.43-324.52-1569.88-313.78Z" transform="translate(2236.54 630.81)"/><path class="cls-1" d="M-2167.9,227.31c1.07-9.77,2.63-12,11.1-14.68q107.61-34.42,215.24-68.8c13-4.14,16.26-.92,13.91,12.43a164.25,164.25,0,0,0-2.2,21.82c-.4,9.58-1,10.38-10.2,12.92-22.75,6.28-45.41,12.93-68.21,19.05-5.42,1.45-7.37,4.21-7.79,9.57-1.43,18.09-3.19,36.15-5,54.2-.37,3.74.88,5.67,4.24,7.24,20.66,9.6,41.22,19.4,61.82,29.13,2.26,1.06,4.48,2.22,6.79,3.14,4.76,1.89,5.63,5.44,5,10.11q-1.21,9.6-1.71,19.29c-.35,7.28-5.38,10.72-11.8,7.22-17.38-9.47-34.64-19.18-51.89-28.89q-74.4-41.85-148.73-83.8a31.83,31.83,0,0,1-6.3-4C-2165.36,231.61-2166.49,229.32-2167.9,227.31Zm72.65,9.32-.15,1.72,45.33,24.71c1.42-14.57,2.71-27.73,4.12-42.25Z" transform="translate(2236.54 630.81)"/><path class="cls-1" d="M-693.15-288.77l-42.78,45.66-2.63.54c1.62.85,3.49,1.42,4.81,2.6q21.6,19.33,43,38.85c6.79,6.19,6.51,10.24-.49,16.37a80,80,0,0,0-7.73,7.78c-5.82,6.7-9.39,7-15.6.53-7.61-7.93-14.76-16.31-22.53-24.08-7.18-7.18-14.91-13.81-22.83-21.09l-49.73,51.29a59.71,59.71,0,0,0,4.49,5.08c15.84,14.25,31.63,28.56,47.66,42.59,7.13,6.24,7.66,9,1.13,15.85-3.56,3.74-7.24,7.39-11.11,10.79-4.94,4.36-7.29,4.27-11.92-.43-13.33-13.52-26.41-27.3-39.88-40.68-10.75-10.68-22-20.91-32.92-31.38-2-1.95-4-4-5.89-6.1-2.8-3.25-2.93-6.56.26-9.74,2.72-2.7,5.32-5.52,8.1-8.16,46.23-44,91.36-89.07,134.45-136.17,2-2.21,4.12-4.36,6.33-6.38,5-4.59,7.58-4.59,12.34.1s9.26,9.59,14,14.26q28.85,28.38,57.78,56.68a50.6,50.6,0,0,1,6.18,6.51c2.49,3.48,2.42,7.14-.77,10.38q-5.94,6-11.88,12.09c-4.15,4.24-8.33,4.5-12.49,0-11.33-12.21-22.4-24.65-33.62-37C-682.21-277.26-687.17-282.41-693.15-288.77Z" transform="translate(2236.54 630.81)"/><path class="cls-1" d="M-2119.57,519.61l61.26-13.52c-1.49-6.5-2.61-12.34-4.18-18.06-4.14-15.07-8.52-30.08-12.7-45.14-1.76-6.34.46-9.79,6.87-11.24,5.18-1.18,10.38-2.32,15.54-3.58,6.18-1.51,9.59.36,10.86,6.72,3.11,15.67,6,31.38,9,47.06.78,4.09,2.06,8.1,2.53,12.21.5,4.31,2.74,4.6,6.18,3.8,13.76-3.22,27.56-6.3,41.32-9.56,8.38-2,16.7-4.19,25.65-6.46-1.41-6-2.44-11.55-4-16.92q-7.51-25.86-15.39-51.61c-2.6-8.47-.85-11.7,7.74-13.41,4.4-.88,8.76-2,13.1-3.13,6.93-1.81,10.09-.11,11.63,6.78,5.46,24.34,10.72,48.73,16.29,73.06,2.34,10.2,5.49,20.23,7.84,30.43,2.27,9.85.54,12-9.26,14-31.61,6.52-63.33,12.52-94.76,19.81-33.85,7.86-67.41,17-101.11,25.5-13.36,3.38-14.2,2.78-17.26-10.39q-11.37-48.82-22.8-97.65c-2.08-8.88-.13-11.73,9-13.36a101.52,101.52,0,0,0,11.13-2.74c8-2.41,11.61-.41,13.06,7.91,2.48,14.26,4.66,28.58,7.17,42.84C-2123.37,501.63-2121.46,510.2-2119.57,519.61Z" transform="translate(2236.54 630.81)"/><path class="cls-1" d="M-995.68-514.07c2.68,1.69,4.68,2.78,6.49,4.12,10.07,7.52,20.71,13.93,32.92,17.38,3.87,1.09,5.23,2.82,4.71,7.45q-6.16,54.84-11.51,109.76c-1.88,19.39-3,38.85-4.53,58.27-.14,1.77-.19,3.53-.37,6.91,46.54-40.22,90.35-81.21,133.13-124.33,10.07,11.25,23.59,14.18,38.24,18-1.9,1.47-3.86,2.87-5.69,4.42-30.67,25.89-61.61,51.49-91.91,77.8-29.94,26-59.29,52.64-88.75,79.17-3.57,3.22-5.56,3.06-9.46.2a56.11,56.11,0,0,0-16.73-8.09c-4.21-1.27-5.13-3-4.76-6.87,1.8-19.06,3.62-38.13,5.15-57.21q3.51-43.83,6.61-87.68C-999.86-447.44-997.87-480.18-995.68-514.07Z" transform="translate(2236.54 630.81)"/><path class="cls-1" d="M-607.85,145.54c4.83,0,9.66,0,14.49,0,4.27,0,7.37,1.64,8.59,6.06s1.26,8.39-2.35,12c-4.7,4.68-9.7,9.23-13.53,14.59-11.62,16.22-8.1,40.61,7.22,53.38,16,13.37,43.06,7.49,50.33-11.94,5.17-13.79,7.9-28.48,12-42.7a124.32,124.32,0,0,1,6.32-18.36c11.51-24.79,36-37.87,64.93-34.91,26.7,2.73,43.8,18.29,53.43,42.23,8.95,22.26,11.43,45.14,1.32,68-4.09,9.23-6,9.91-15.81,8-6.52-1.24-13.17-1.91-19.78-2.69-4.29-.5-7.57-1.85-8.82-6.61s-.82-8.83,3.41-12a96.41,96.41,0,0,0,8.57-6.86c10-9.41,12.4-23.31,6.34-35.12-6.49-12.63-18.34-18.39-32.37-16-11.57,1.94-19.07,8.88-22.6,19.5-3.61,10.86-5.9,22.15-8.89,33.22-2.17,8-4,16.2-6.92,23.94-9,23.52-26.78,35-51.52,36.92-47.09,3.67-77-29.8-83.58-71.35-2.89-18.07-.88-35.45,7.15-52.09,2.67-5.52,5.9-9,12.63-7.84,3.08.52,6.32.09,9.48.09Z" transform="translate(2236.54 630.81)"/><path class="cls-1" d="M-943.72,1108.79c2.89-1.69,5.68-3.15,8.28-4.9,2.3-1.55,4.27-1.77,6.8-.28,14.2,8.35,28.22,6,41.76-1.54,14.82-8.23,21.19-23.55,17.44-41a64.58,64.58,0,0,0-17.45-32.57c-10.51-10.59-23.91-13-37.5-6.58-9.93,4.65-16.63,12.5-21.78,22-1,1.92-2.68,4.67-4.33,4.89-4.22.54-8.62,0-12.92-.44-.63-.06-1.18-1.85-1.6-2.9-12.65-31.56-29.92-60.51-49.44-88.21-1.27-1.81-3.57-4.44-3-5.7,1.62-3.83,3.6-9,6.83-10.41,29.43-12.47,56.22-29.64,83.55-45.83,4.37-2.59,8.23-1.65,12.41-1a3.18,3.18,0,0,1,2.17,1.79,64,64,0,0,0,16.74,29.15c-10.8,4.82-21.1,9-31,13.95-13.87,6.86-27.43,14.33-41.21,21.35-3.67,1.87-4.77,3.81-2.8,7.74,6.39,12.74,12.53,25.62,18.53,38,7.56-5.11,14.42-10.45,21.9-14.7,38.59-21.95,85.27-3,97.2,40.9,8.7,32-.83,59.3-25.29,81.14-19.84,17.71-43.13,27.25-70.13,26.78-3.18,0-5-1-5.93-3.95C-937.52,1127.42-940.52,1118.44-943.72,1108.79Z" transform="translate(2236.54 630.81)"/><path class="cls-1" d="M-1201.41,1076.75c10.8-3.51,20.52-7.6,30.65-9.82,39.42-8.65,76.31,20,78.68,60.35,2.08,35.38-13.41,61-44.12,76.85-21.86,11.3-45.45,16-70.16,10.06-7.61-1.83-9.13-3.82-9.5-11.64-.33-6.8-.93-13.6-1.06-20.41a5.24,5.24,0,0,1,2.44-3.94,27.18,27.18,0,0,1,8.11-2.34,6.28,6.28,0,0,1,4.68,1.24c10.86,10.48,23.84,12.64,38,9.73,17.06-3.51,28.21-16.36,29.82-33.72,1-11-1.1-21.57-5.3-31.68-10.25-24.67-35.72-31-56.47-14a122.42,122.42,0,0,0-9.9,9.16c-5,5.06-9.71.79-14.24-.56-1.56-.46-2.59-3.93-3.17-6.2-5.63-22-10.81-44.23-16.77-66.19-2.73-10.08-6.85-19.78-10.47-29.62-2-5.42,1.53-12.89,7.41-13.87,31.78-5.32,62.17-15.84,93.06-24.49,3.42-1,7.65.76,11.44,1.54a3.36,3.36,0,0,1,1.78,2.61,64.19,64.19,0,0,0,9.71,32.64c-29.33,2.48-56.45,11-84.6,18.24Q-1206.29,1054.27-1201.41,1076.75Z" transform="translate(2236.54 630.81)"/><path class="cls-1" d="M-644,805.45c4.5,10.09,8.3,19.27,12.62,28.2,10.06,20.83,20.32,41.55,30.61,62.26,5,10.14,5,10.27-2.18,18.88a104.24,104.24,0,0,0-8.78,12.7,8.72,8.72,0,0,1-8.6,4.69c-3.77-.14-5.16-2.63-6.3-5.48-10.81-27-21.41-54.14-32.47-81.06-6.12-14.92-12.93-29.56-19.65-44.22a15.36,15.36,0,0,0-5-5.91c-22.39-15.64-44.9-31.11-67.35-46.66-6.29-4.35-6.64-8-1.93-14.06,4.88-6.3,9.8-12.61,14.19-19.26,5.28-8,8.53-8.67,16-2.83,20.26,15.73,40.52,31.46,61,47a18.49,18.49,0,0,0,9,3.34c41.11,4,82.23,7.89,123.36,11.77,4.47.42,9,.65,13.42,1.25,7.22,1,9.69,7.32,5.33,13.22-6,8.15-12.14,16.26-18,24.56-2.93,4.19-6.35,5.52-11.49,4.82-32.83-4.45-65.7-8.63-98.55-12.88C-640.07,805.58-641.37,805.59-644,805.45Z" transform="translate(2236.54 630.81)"/><path class="cls-1" d="M-458.81,570.64c3-10.65,5.91-20.49,8.52-30.42,1.94-7.39,3.51-14.89,5.18-22.35,1.81-8.07,6.12-10.15,13.84-7.05a100.89,100.89,0,0,0,13.75,4.28c6.44,1.53,8.72,4.77,6.59,11.28-5.68,17.38-11.87,34.6-17.39,52-9.78,30.91-19.22,61.92-28.8,92.89-.49,1.59-.9,3.21-1.52,4.75-2.26,5.58-5.34,7-11,5.1s-11.66-3.8-17.52-5.59c-4-1.22-5.88-3.82-5.09-7.87a58.37,58.37,0,0,1,2.68-9.05c5.57-14.95,11.23-29.87,16.84-44.81a18.8,18.8,0,0,0,.55-2.39c-16.51-5.46-32.81-11.17-49.3-16.24-41.79-12.84-83.68-25.39-125.51-38.07-10.34-3.13-11.39-5.81-7.57-16a210.78,210.78,0,0,0,6.5-20.91c2.14-8.16,5.24-10.14,13.33-7.43,45.55,15.26,91.07,30.63,136.65,45.79C-485.5,562.8-472.71,566.4-458.81,570.64Z" transform="translate(2236.54 630.81)"/><path class="cls-1" d="M-1714.1,1109.6c-11.48-11.19-24.11-19-38.75-22.59q46.83-79,93.23-157.31l-.71-1.59h-35.23a47.75,47.75,0,0,0,0-6.36c-.68-4.21-1.76-8.37-2.35-12.6-.29-2.08-.53-4.61.36-6.36,3.78-7.4,3.91-7,12.67-6.13,23.52,2.36,47.06,4.47,70.6,6.59,7.61.68,10.3,2.62,11.33,10.13.28,2.07-1.22,4.63-2.43,6.65-22.34,37.43-45.15,74.59-67,112.29-13.27,22.87-25.13,46.55-37.62,69.87C-1711.24,1104.36-1712.43,1106.53-1714.1,1109.6Z" transform="translate(2236.54 630.81)"/><path class="cls-1" d="M-612,349.73c28.44,2.43,53.13,5.06,77.89,6.52,39.9,2.36,79.84,3.93,119.77,5.84,4.82.23,9.67.26,14.45.83,5,.6,7,3.34,6.65,8.18-.7,10-1.42,19.91-2.23,29.85-.44,5.47-3.95,8.36-9.37,7.73-69.71-8.16-139.71-11.83-209.85-13.45-5.11-.12-7.92-3-7.69-8.23q.66-14.91,1.68-29.81C-620.26,350.68-617.95,349.43-612,349.73Z" transform="translate(2236.54 630.81)"/><path class="cls-1" d="M-1118-535.1c-1.87,11.17-4.45,24.73-6.35,38.39q-7.11,50.91-13.62,101.89c-.81,6.38-2.46,12-7.06,16.55q-12.23,12.12-24.47,24.25c-1.17,1.16-2.47,2.61-3.94,3-2.86.7-6.25,1.72-8.74.79-3.38-1.27-4.64-4.69-4-8.73,3.29-21.88,6.84-43.73,9.47-65.69,4.6-38.32,8.69-76.7,12.8-115.07,1-9.31,4.22-11.69,13.41-9.94,7.81,1.48,15.77,2.2,23.69,3C-1119.51-545.88-1117.85-544.35-1118-535.1Z" transform="translate(2236.54 630.81)"/><path class="cls-1" d="M-1799.83,882.46c2.14,18.16-14.53,35.2-34.63,35.24-18.65,0-34.3-16.38-34.18-35.37.13-19.27,15.51-34.13,34.82-34.44C-1818.34,847.64-1797.54,861.59-1799.83,882.46Z" transform="translate(2236.54 630.81)"/><path class="cls-1" d="M-802.46,907.87c-1.78-21.07,18.08-35.38,33.6-35.11,20,.36,35.25,15.23,35.12,35.09-.13,19.66-15.1,34.29-35.15,34.33C-788.1,942.22-802.42,927.58-802.46,907.87Z" transform="translate(2236.54 630.81)"/><path class="cls-1" d="M-1414,612.33c-7.61-6.42-13.86-12.39-20.8-17.39-11.31-8.15-24.66-9.35-38.11-9.75-4.65-.14-9.31-.55-13.93-1.11a9,9,0,0,1-8.28-7.49c-.79-3.57-1.44-7.18-2.34-10.72-4-15.82-13.69-27.59-27.08-36.38-4-2.65-5.63-4.58-3.94-10.08,3.39-11,2.19-22.37-.91-33.51a50.35,50.35,0,0,1-1.66-11.79c-.13-4.21,2.09-7,6.64-7.09,15.53-.27,26.9-8.71,37-19.18,2.44-2.53,4.26-2.73,7.28-1.69q12.27,4.22,24.73,7.84c7.29,2.12,14.66,2.79,22.12.37,3.31-1.07,6.81-1.56,10.2-2.4,10.26-2.56,11-2.88,15.06,6.67,10.19,23.75,26.92,40.63,50,52.07,12.4,6.15,12,6.9,8.48,20.63-1,3.87-1.79,7.78-2.89,11.62-2.65,9.29-.44,17.47,5.57,24.74,14.61,17.69,32.74,30.61,53.88,39.38,6.29,2.61,11.79,2.09,17.78-1.91,14.93-10,30.64-18.85,45.46-29,7.75-5.31,14.45-12.22,21.22-18.81a8.68,8.68,0,0,0,2-7.07c-2-8-4.63-15.85-7.14-23.72-.74-2.33-1.82-4.54-2.87-7.08,2.46-1.23,4.57-2.17,6.56-3.3,7.08-4,14.34-7.79,21.12-12.27,8.9-5.88,15.9-13.58,20.11-23.63,2.77-6.59,6.06-13,8.84-19.55,1.85-4.4,4.9-5.88,9.47-5.33,8.59,1,17.24,1.67,25.81,2.9,13.92,2,26.14-.83,36-11.47a18,18,0,0,1,2.55-1.91c18.47,13,37.84,22.87,62.44,17.14-.84,2.61-1.19,3.94-1.69,5.21-2,4.94-4,9.86-6,14.79-3.16,7.84-3.9,15.85-1.12,23.92,3.81,11.06,2.67,19.61-8.81,26.19-13,7.43-17.81,21-21.73,34.65-1.42,4.94-3.12,9.81-4.85,14.66-1.44,4-4.12,5.83-8.75,5.71-14.65-.37-29.62-1.16-43.07,5.92-10.4,5.47-20.1,12.27-30.09,18.52-1.69,1-3.25,2.31-5.33,3.79-4-3.9-8.32-7.56-12-11.77-10.87-12.48-24.2-14.68-38.37-7.85a377.7,377.7,0,0,0-40.71,23.06c-12,7.75-23.2,16.79-34.5,25.58-3,2.31-5.06,2.31-7.86.26-10.34-7.58-20.53-15.41-31.2-22.5-11.91-7.9-24.17-15.29-36.53-22.47-4.1-2.38-8.9-3.67-13.52-5-10.7-3.11-20.29-1-28.93,6.26C-1403.82,605.29-1409.48,609-1414,612.33Zm40.21-81.34c-1.67-.78-4.39-1.93-7-3.29-5.42-2.81-11.38-5-16-8.76-12.56-10.13-20.76-23.2-23.72-39.31-1-5.58-1.68-5.82-6.94-3.76-1.08.43-2.17.84-3.24,1.31-11.47,5.08-22.57,4.7-33.32-2.12-4.17-2.64-8.51-5-11.89-7-5.66,4.7-10.23,9.85-15.94,12.84s-12.68,3.9-19.76,5.91c3.91,5.11,7.33,9.78,11,14.27,1.82,2.25,1.84,3.87-.34,5.9-3,2.8-5.74,5.89-8.07,8.33,8.35,7,18.25,12.44,23.6,20.76s6,19.49,9,30.33c2.27-.65,5.51-1.71,8.82-2.47,4.8-1.1,9.63-2.66,14.49-2.8,7.89-.23,15.15,2.87,21.27,7.58,6.74,5.19,12.78,11.28,19.39,17.22,1-1,3.06-2.67,4.86-4.59,7.11-7.59,14.93-13.22,26.17-10.3a13,13,0,0,0,2.49,0c4.48.18,5.62-1.82,4.82-6.17a146.51,146.51,0,0,1-2.74-21.22C-1377,539.88-1375.06,536-1373.75,531ZM-1084,471.68c-15.57,15.75-33.33,18.55-53.14,11.22-3.61-1.34-5.92-1.43-7.35,3.34-6.2,20.67-16.54,37.8-39.49,43.43-1,.24-2.1,2.51-2.07,3.8.09,3.58,1.48,7.25,1,10.71-.74,5.72-2.62,11.29-3.79,17-.51,2.47-1.59,6.13,2.55,6.14,10,0,17.71,5.19,25.69,10,5.33,3.19,10.19,3.32,14.94-1.18,2.16-2,4.77-3.61,7.13-5.46,15.5-12.14,32.87-15.21,51.75-10.53,3.33.82,5,0,5.63-3.38.9-4.57,2-9.09,3.12-13.61,2.14-8.66,5.78-16.51,13.93-21,5.34-2.93,7.21-6.8,5.86-12.58-.45-1.93-.51-4-.81-5.93-.76-5-.85-9.63,2-14.34,3-4.95,2-5.62-3.87-6.88a91,91,0,0,1-15.85-5C-1079.34,476.31-1081.37,473.79-1084,471.68Z" transform="translate(2236.54 630.81)"/><path class="cls-1" d="M-1107.53,206c-3.53-2.12-7.43-3.82-10.47-6.49-3.77-3.32-8.08-6.91-10-11.32a266.9,266.9,0,0,1-18.42-62.55,22.55,22.55,0,0,1,3.92-17.56c11.72-16,26.47-29,42.33-40.71a4.34,4.34,0,0,1,4.15.33c20,18.28,40.23,36.44,59.8,55.23,7.91,7.59,7.3,10,.9,18.86-3.9,5.39-8.07,10.66-11.34,16.42-4.83,8.51-3.36,13.7,4.92,18.93,6.65,4.2,9.88,9.74,9.65,17.77-.33,11.82-.8,23.72.13,35.48,1.46,18.61-6.39,32.76-18.84,45.41-15.58,15.82-34.07,27.75-52.59,39.57a100.37,100.37,0,0,1-21.53,10c-7.42,2.54-7.87,1.49-11.56-5.58a63.52,63.52,0,0,0-8.47-11.64c-3.59-4.16-7.57-8-11.51-11.82-8.59-8.39-10-18.28-5.32-28.84,4.41-9.86,10-19.18,14.53-29,5.58-12.14,13.91-20.74,27-24.63,4.48-1.33,8.55-4,12.81-6.12Zm-37.34,70.91c1.21,2.59,2,5.54,3.76,7.73a92,92,0,0,0,9.39,9.66c11.79,11,13.8,11.18,26.61,1.12a221.24,221.24,0,0,0,44.48-47,41.67,41.67,0,0,0,7.19-16.75c1.64-10.29,2-20.85,2.06-31.31,0-3.36-1.84-7-3.67-10-2.66-4.39-6.31-8.17-9.13-12.48-6-9.16-6.71-18.56-.56-28.07a98.79,98.79,0,0,0,5.06-8.6c3.24-6.38,3.4-9.12-2-13.77-11.82-10.19-24.21-19.7-36.35-29.51-2.13-1.72-3.82-1.3-5.53.68-3.92,4.53-7.74,9.18-12,13.42-5.54,5.57-7,12.23-6.35,19.69a138.26,138.26,0,0,0,10.43,42A30.8,30.8,0,0,0-1098.88,188c3,1.85,6.27,3.36,8.72,5.75,2.25,2.19,4.53,5.15,5.11,8.1,1.69,8.69-.56,16.34-8.82,21s-16.49,8.63-24.69,13a12.52,12.52,0,0,0-4.51,3.63c-6.27,9.42-12.43,18.92-18.38,28.54C-1143,270.52-1143.61,273.53-1144.87,276.89Z" transform="translate(2236.54 630.81)"/><path class="cls-1" d="M-1655.61,624.61l-5.93-8.82,21-18.49c-.16-.31-.33-.62-.5-.92l-33.18,3.78c2.57-6,4.55-10.73,6.64-15.42s4.27-9.31,5.69-14.93l-23.31,13-5.49-6.93c14.63-7.13,28.76-14.05,42.94-20.87.87-.42,2.11-.09,3.17-.11-.07,1.23.22,2.63-.25,3.68-4,8.78-8.09,17.5-12.14,26.25-.81,1.76-1.54,3.57-2.71,6.3,10.13-.88,19.32-1.7,28.53-2.47a56,56,0,0,1,8.95-.4c2.48.21,3.78,1.84,1.47,4C-1632.2,603-1643.79,613.66-1655.61,624.61Z" transform="translate(2236.54 630.81)"/><path class="cls-1" d="M-1470.55,717.27c6.65,3.05,13,5.65,19,8.76,6.72,3.47,8.86,7.82,7.68,14.1-1,5.46-5.12,8.52-12.51,9.34-1.3.15-2.6.35-4.55.6,2.79,9.31,5.51,18.38,8.52,28.39-7.26-3-13.37-5.08-14.42-13.51-.69-5.65-3-11.1-4.63-16.64l-1.43-.17-7.55,17.78-9.46-3.93Zm.72,24.22c4.67.28,8.55,1.14,12.2.56a4.88,4.88,0,0,0,3.69-7.28c-1.58-2.74-4.89-4.72-7.85-6.2-.62-.32-3.36,2.81-4.57,4.71S-1468.31,737.77-1469.83,741.49Z" transform="translate(2236.54 630.81)"/><path class="cls-1" d="M-1613.64,676.41l-7.08-7.34q16-17.31,32.56-35.1c5.61,5.44,11.52,10.5,16.6,16.28,4.43,5,4.3,10,1,14.64-3.81,5.44-9.12,7.88-15.12,5.65-5.19-1.94-9.9-5.14-15.28-8C-1604.83,666.77-1609.17,671.51-1613.64,676.41Zm28.64-30.75-10.54,11.19c7.31,6.74,11.77,7.28,16,2.5C-1576.13,655.44-1577.29,652.35-1585,645.66Z" transform="translate(2236.54 630.81)"/><path class="cls-1" d="M-1705.58,531.23l-6.68,3.06-12.17-26.2,44.27-19.89c3.9,8.71,7.75,17.27,11.69,26.05l-7,3.06c-1.57-3.85-3.38-7.51-4.57-11.37-1.42-4.54-3.68-5.89-8-3.37-1.84,1.09-3.86,1.88-6,2.87l7.08,15-6.83,3.53c-1.73-4.07-3.51-8.1-5.17-12.18-1-2.44-2.33-3.41-5-2.12-3.26,1.6-6.63,2.94-10.36,4.57C-1711.15,520.16-1708.42,525.59-1705.58,531.23Z" transform="translate(2236.54 630.81)"/><path class="cls-1" d="M-1537.27,709.54l-8.56,12.4,16.26,9.6-4.07,6.67-24.22-16.2,26.71-40.24,24.19,15.72-4.78,6.16-14.52-10.57-7.49,10.49,14.84,8.91-4.74,6.24Z" transform="translate(2236.54 630.81)"/><path class="cls-1" d="M-1707.14,446.64c1-1.85,2.41-3.32,2.69-5,.42-2.57.73-5.51-.15-7.81-.56-1.45-4-3.29-5.06-2.75a12.22,12.22,0,0,0-5.25,5.77c-1.29,3.17-1.39,6.81-2.12,10.22-2.13,9.92-13.55,14.1-21.87,8.06-6.49-4.71-10.06-15.08-7.86-22.81.76-2.7,8.21-5.29,9.8-3.16.68.91.14,3.46-.7,4.66-2.94,4.17-3.61,8.43-.29,12.35a8.45,8.45,0,0,0,6.32,2.7c1.72-.18,3.9-2.49,4.6-4.34,1.39-3.68,1.79-7.74,2.82-11.58,2.15-8,6.38-11.28,13.76-10.9,6.32.31,12.3,6,13.38,12.83a51.63,51.63,0,0,1,.45,6C-1696.33,448.5-1698.91,450.11-1707.14,446.64Z" transform="translate(2236.54 630.81)"/><path class="cls-1" d="M-1116,782.08l-18.31-45.3c9.53-3.53,18.8-7.6,28.44-10.34,10-2.84,18.5,2,23.66,12,5.25,10.14,3.37,22.39-5,29.58a47,47,0,0,1-10.59,6.37C-1103.67,777.14-1109.71,779.44-1116,782.08Zm-6.3-42.76c3.28,8.22,6.26,15.74,9.29,23.25.87,2.15,1.55,4.49,2.92,6.28.87,1.13,3,2.22,4.32,1.93,14.9-3.44,20-14.77,13.11-28.39-3.7-7.26-8-9.71-15.71-7.95C-1113,735.5-1117.37,737.55-1122.32,739.32Z" transform="translate(2236.54 630.81)"/><path class="cls-1" d="M-886,503.5l43.13-18.7-29.32-11.61,3.36-7.22,46.55,20c-3.28,1.94-5.15,3.34-7.24,4.23-10.56,4.48-21.18,8.82-31.76,13.25-1.61.68-3.12,1.58-5.82,3l29.4,11.6-3.35,8-45.06-20.29C-886,505-886,504.27-886,503.5Z" transform="translate(2236.54 630.81)"/><path class="cls-1" d="M-878,577.21c1.94-3.16,3.55-5.65,5-8.22s2.79-5.24,4.43-8.32l6.52,4.41-15.55,24.49-40.71-25.92,15.13-24.13,6.61,4c-2.57,3.74-4.82,7.41-7.46,10.76-2.53,3.2-2.49,5.5,1.34,7.42,1.92,1,3.73,2.15,6.24,3.63l8.65-14.08,6.67,4.18-9.64,13.93Z" transform="translate(2236.54 630.81)"/><path class="cls-1" d="M-936.47,593.54a14.83,14.83,0,0,1,1.12,1.57c3.32,6.19,3.31,6.19-3.35,8.6-8,2.91-13.25,10.48-12.39,17.94.89,7.68,10.36,16.73,18.37,17.55s14.93-4.11,17.71-12.4A24.46,24.46,0,0,1-913.9,623a31.32,31.32,0,0,1,2.93-3.93,49.23,49.23,0,0,1,3.84,4.22,3.11,3.11,0,0,1,0,2.42c-3.48,9.93-9.64,17.59-19.76,21.1-9.25,3.22-17.67,1.2-24.9-5.62a24.76,24.76,0,0,1-3.74-31.11A44.13,44.13,0,0,1-936.47,593.54Z" transform="translate(2236.54 630.81)"/><path class="cls-1" d="M-982,660.2a25.21,25.21,0,0,1-5.19-.31c-3.56-1-6.05.66-7.49,3.39-.85,1.6-1.1,5.11-.21,5.72a13.69,13.69,0,0,0,7.82,2.45c3.23-.12,6.36-1.85,9.61-2.43,9.92-1.76,17.55,5.74,16.26,15.81-1.13,8.75-9.3,16.55-18.14,17.32-3.27.28-7.52-4.49-6.21-7.34.44-.95,2.69-1.67,4-1.5,4.21.55,8.37.36,10.81-3.27a9.19,9.19,0,0,0,.93-7.57c-.75-1.71-4.12-3.27-6.25-3.19-4.09.16-8.1,1.74-12.19,2.36-5,.75-9.68,0-12.84-4.62-3.33-4.82-4.15-10.15-.72-14.92a31.12,31.12,0,0,1,10-9.26C-984.92,649.14-982.27,651.28-982,660.2Z" transform="translate(2236.54 630.81)"/><path class="cls-1" d="M-823.47,435.44c1.73-1.22,3.16-2.26,4.62-3.27,3.62-2.5,5.66-6,4.42-10.23a8.54,8.54,0,0,0-4.71-5.08c-1.63-.54-4.57.66-6,2.05-2.91,2.9-5,6.61-7.79,9.69-4.36,4.89-9.25,6.08-14.79,3.9s-8.09-6.57-8.5-12.37.56-11,4.25-15.46c.83-1,2.82-2.28,3.49-1.93,2.25,1.17,4.15,3,6.18,4.62-1.07,1.17-1.93,2.7-3.24,3.43-3.11,1.73-5.06,4.19-4.31,7.63a7.53,7.53,0,0,0,3.71,4.65,5.8,5.8,0,0,0,5.23-1,61.67,61.67,0,0,0,7.4-9.36c3.54-5.29,8.42-6.68,14.33-5.49s10,4.87,10.48,10.58.27,11.75-1.6,17C-812.86,442-817.37,442.05-823.47,435.44Z" transform="translate(2236.54 630.81)"/><path class="cls-1" d="M-1049.19,695.92l25,41.78-8.69,5.28-24.85-41.56Z" transform="translate(2236.54 630.81)"/></svg>
